<svg width="50" height="50" viewBox="0 0 50 50" fill="none" xmlns="http://www.w3.org/2000/svg">
    <g clip-path="url(#clip0_7_8)">
    <path d="M20.5882 36.6522C13 38.9957 13 32.4675 10 31.6305M31.1765 40V34.1414C31.1765 32.4675 31.3529 31.7979 30.2941 30.7936C35.2353 30.2914 40 28.4502 40 20.7503C39.9979 18.7499 39.1751 16.8288 37.7059 15.3938C38.3949 13.6562 38.3315 11.7307 37.5294 10.0374C37.5294 10.0374 35.5882 9.53518 31.3529 12.2134C27.7657 11.3272 23.999 11.3272 20.4118 12.2134C16.1765 9.53518 14.2353 10.0374 14.2353 10.0374C13.4332 11.7307 13.3698 13.6562 14.0588 15.3938C12.5896 16.8288 11.7669 18.7499 11.7647 20.7503C11.7647 28.4502 16.5294 30.2914 21.4706 30.7936C20.4118 31.7979 20.4118 32.8023 20.5882 34.1414V40" stroke="white" stroke-width="3" stroke-linecap="round" stroke-linejoin="round"/>
    </g>
    <defs>
    <clipPath id="clip0_7_8">
    <rect width="50" height="50" fill="white"/>
    </clipPath>
    </defs>
    </svg>
    