<svg width="50" height="50" viewBox="0 0 50 50" fill="none" xmlns="http://www.w3.org/2000/svg">
    <g clip-path="url(#clip0_7_11)">
    <rect width="50" height="50" fill="#0F0F0F"/>
    <path d="M8.33334 12.5C8.33334 11.395 8.77233 10.3352 9.55373 9.55376C10.3351 8.77236 11.3949 8.33337 12.5 8.33337H37.5C38.6051 8.33337 39.6649 8.77236 40.4463 9.55376C41.2277 10.3352 41.6667 11.395 41.6667 12.5V37.5C41.6667 38.6051 41.2277 39.6649 40.4463 40.4463C39.6649 41.2277 38.6051 41.6667 37.5 41.6667H12.5C11.3949 41.6667 10.3351 41.2277 9.55373 40.4463C8.77233 39.6649 8.33334 38.6051 8.33334 37.5V12.5Z" stroke="white" stroke-width="3" stroke-linecap="round" stroke-linejoin="round"/>
    <path d="M16.6667 22.9166V33.3333" stroke="white" stroke-width="3" stroke-linecap="round" stroke-linejoin="round"/>
    <path d="M16.6667 16.6666V16.6875" stroke="white" stroke-width="3" stroke-linecap="round" stroke-linejoin="round"/>
    <path d="M25 33.3333V22.9166" stroke="white" stroke-width="3" stroke-linecap="round" stroke-linejoin="round"/>
    <path d="M33.3333 33.3333V27.0833C33.3333 25.9782 32.8943 24.9184 32.1129 24.137C31.3315 23.3556 30.2717 22.9166 29.1667 22.9166C28.0616 22.9166 27.0018 23.3556 26.2204 24.137C25.439 24.9184 25 25.9782 25 27.0833" stroke="white" stroke-width="3" stroke-linecap="round" stroke-linejoin="round"/>
    </g>
    <defs>
    <clipPath id="clip0_7_11">
    <rect width="50" height="50" fill="white"/>
    </clipPath>
    </defs>
    </svg>
    